<?xml version="1.0" encoding="utf-8"?>
<!-- Generator: Adobe Illustrator 17.0.0, SVG Export Plug-In . SVG Version: 6.00 Build 0)  -->
<!DOCTYPE svg PUBLIC "-//W3C//DTD SVG 1.1//EN" "http://www.w3.org/Graphics/SVG/1.1/DTD/svg11.dtd">
<svg version="1.1" id="Camada_1"
	xmlns="http://www.w3.org/2000/svg"
	xmlns:xlink="http://www.w3.org/1999/xlink" x="0px" y="0px" width="400px" height="400px" viewBox="0 0 400 400" enable-background="new 0 0 400 400" xml:space="preserve">
	<g id="XMLID_13_">

		<linearGradient id="XMLID_2_" gradientUnits="userSpaceOnUse" x1="189.4312" y1="162.2499" x2="189.4312" y2="413.8305" gradientTransform="matrix(1 0 0 -1 0 373.6097)">
			<stop offset="0" style="stop-color:#647D2A"/>
			<stop offset="1" style="stop-color:#AEC90B"/>
		</linearGradient>
		<path id="XMLID_537_" fill="url(#XMLID_2_)" d="M221.024,58.502c-3.065,11.061-9.207,21.025-17.711,28.734
		c-1.317,1.194-2.687,2.332-4.11,3.412c-0.628,0.477-1.265,0.943-1.918,1.4c-0.653,0.457-1.302,0.894-1.971,1.31
		c-0.433,0.286-0.865,0.555-1.302,0.816c0.682-0.571,1.339-1.155,1.992-1.771c17.218-24.324,14.237-57.549-7.036-78.42
		c-13.241,10.021-28.843,16.458-45.299,18.687c-0.22,0.02-0.445,0.053-0.665,0.082c-4.656,0.739-7.383,4.681-9.737,8.57
		l-0.204,0.408l-4.607,7.811l-10.611,19.617l-4.636,8.57l-2.832,5.191c3.524,16.885,18.411,28.981,35.66,28.975h45.144
		c5.395,0.003,10.143-3.558,11.651-8.737c0.328-1.105,0.493-2.251,0.49-3.404c0.001-1.391-0.239-2.772-0.71-4.081
		c0.258,0.292,0.498,0.6,0.718,0.922c1.439,2.036,2.209,4.469,2.204,6.962c0.001,0.354-0.017,0.709-0.053,1.061
		c2.257,1.301,4.426,2.749,6.493,4.334c-7.604,4.154-12.417,12.045-12.631,20.707c2.29-4.008,5.673-7.281,9.754-9.439
		c-3.953,5.108-5.715,11.578-4.897,17.985c4.248-7.841,12.45-12.724,21.368-12.72c0.441,0,0.877,0,1.31,0.037
		c4.818,7.856,7.767,16.714,8.619,25.89c0.192,1.898,0.277,3.824,0.277,5.762c0,0.343,0,0.69,0,1.032
		c0,0.816-0.037,1.604-0.082,2.404c-0.065,1.143-0.161,2.277-0.286,3.404c-1.082-0.148-2.173-0.222-3.265-0.22
		c-4.667-0.007-9.236,1.335-13.157,3.865c0.408-0.02,0.816-0.029,1.253-0.029c3.953-0.009,7.849,0.951,11.345,2.796
		c-4.766,0.289-9.376,1.803-13.386,4.395c0.469-0.02,0.943-0.037,1.42-0.037c4.378-0.008,8.696,1.019,12.602,2.995
		c-3.692,10.219-10.056,19.26-18.43,26.184c-1.885,1.568-3.865,3.018-5.93,4.342c1.726-1.873,3.247-3.925,4.538-6.121
		c4.665-7.914,6.171-17.297,4.216-26.273c-0.065-0.314-0.139-0.628-0.22-0.939c-0.249-1.053-0.555-2.085-0.902-3.106
		c-0.127-0.359-0.249-0.718-0.408-1.069c-0.302-0.816-0.628-1.604-0.996-2.379c-0.625-1.365-1.337-2.688-2.13-3.963
		c-2.664-4.292-6.193-7.982-10.362-10.835c-1.073-0.743-2.188-1.424-3.338-2.04c-5.921-3.184-12.607-4.67-19.319-4.293
		c-18.634,1.024-33.648,16.291-34.358,34.941c-0.604,15.296,8.415,29.34,22.576,35.154l0,0c1.774,0.73,3.602,1.318,5.469,1.759
		h0.057c1.51,0.278,3.008,0.535,4.534,0.747l0.025,0.003c4.608,0.656,9.245,0.986,13.887,0.985c2.359,0,4.7-0.086,7.023-0.257
		c5.246-0.366,10.454-1.165,15.569-2.387c2.489-0.585,4.938-1.265,7.346-2.04c3.387-1.098,6.711-2.381,9.958-3.844
		c2.1-0.944,4.156-1.959,6.166-3.044c3.211-1.729,6.323-3.636,9.321-5.713l0,0c33.989-41.529,27.877-102.748-13.652-136.737
		c-3.748-3.068-7.72-5.851-11.883-8.326L221.024,58.502z M180.846,195.664c-6.708-0.002-12.143-5.442-12.141-12.149
		c0.002-6.708,5.442-12.143,12.149-12.141c6.708,0.002,12.143,5.442,12.141,12.149c0,6.703-5.434,12.137-12.137,12.137h-0.008
		L180.846,195.664z"/>

		<linearGradient id="XMLID_3_" gradientUnits="userSpaceOnUse" x1="188.5265" y1="321.3643" x2="218.9136" y2="332.3463" gradientTransform="matrix(1 0 0 -1 0 373.6097)">
			<stop offset="0.35" style="stop-color:#647D2A"/>
			<stop offset="1" style="stop-color:#AEC90B"/>
		</linearGradient>
		<path id="XMLID_532_" fill="url(#XMLID_3_)" d="M215.449,47.875v0.192c-0.023,13.076-4.283,25.792-12.141,36.243
		c-1.505,2.002-3.131,3.91-4.869,5.713c-0.592,0.616-1.2,1.224-1.824,1.816c-0.204,0.192-0.408,0.408-0.616,0.563
		c17.219-24.323,14.24-57.548-7.032-78.42c3.343-2.526,6.522-5.263,9.517-8.195c1.721,1.787,3.332,3.678,4.824,5.66
		c3.976,5.289,7.059,11.193,9.125,17.479l0,0C214.437,35.043,215.455,41.439,215.449,47.875z"/>

		<linearGradient id="XMLID_4_" gradientUnits="userSpaceOnUse" x1="242.2746" y1="259.6537" x2="284.7413" y2="279.4261" gradientTransform="matrix(1 0 0 -1 0 373.6097)">
			<stop offset="0.21" style="stop-color:#647D2A"/>
			<stop offset="1" style="stop-color:#AEC90B"/>
		</linearGradient>
		<path id="XMLID_531_" fill="url(#XMLID_4_)" d="M288.307,123.729c0.023,25.471-9.98,49.928-27.845,68.083
		c-1.866,1.904-3.812,3.727-5.836,5.469c-2.277,1.97-4.643,3.829-7.097,5.579c-0.331,0.233-0.653,0.461-0.979,0.69
		c33.989-41.529,27.877-102.748-13.652-136.737c-3.748-3.068-7.72-5.851-11.883-8.326c0.701-2.519,1.234-5.082,1.596-7.672
		c0.895-6.357,0.789-12.815-0.314-19.14c34.778,11.774,60.737,42.675,65.292,80.22C288.071,115.82,288.311,119.773,288.307,123.729z
		"/>

		<linearGradient id="XMLID_5_" gradientUnits="userSpaceOnUse" x1="172.6711" y1="197.7832" x2="168.8268" y2="157.1447" gradientTransform="matrix(1 0 0 -1 0 373.6097)">
			<stop offset="0.21" style="stop-color:#647D2A"/>
			<stop offset="1" style="stop-color:#AEC90B"/>
		</linearGradient>
		<path id="XMLID_530_" fill="url(#XMLID_5_)" d="M182.479,220.089c-8.329,0.258-16.498-2.334-23.156-7.346
		c-1.018-0.762-1.993-1.58-2.922-2.449c-0.66-4.717-0.383-9.519,0.816-14.128l0,0c0.159-0.624,0.343-1.253,0.543-1.877
		c1.813-5.721,5.007-10.907,9.301-15.1l0,0c1.361-1.326,2.826-2.542,4.379-3.636c-2.202,4.706-3.379,9.827-3.453,15.022l0,0
		c-0.035,2.659,0.224,5.314,0.771,7.917c0.826,3.901,2.282,7.642,4.31,11.076l0,0l0,0
		C175.489,213.655,178.686,217.229,182.479,220.089z"/>

		<linearGradient id="XMLID_6_" gradientUnits="userSpaceOnUse" x1="170.6227" y1="190.2979" x2="195.7003" y2="157.5276" gradientTransform="matrix(1 0 0 -1 0 373.6097)">
			<stop offset="0.21" style="stop-color:#647D2A"/>
			<stop offset="1" style="stop-color:#AEC90B"/>
		</linearGradient>
		<path id="XMLID_507_" fill="url(#XMLID_6_)" d="M186.282,219.754c-1.265,0.183-2.539,0.295-3.816,0.335
		c-3.785-2.865-6.973-6.442-9.386-10.529l0,0l0,0c-2.028-3.434-3.483-7.175-4.31-11.076c-0.547-2.603-0.806-5.258-0.771-7.917l0,0
		c0.023-1.978,0.211-3.951,0.563-5.897c0.408,1.126,0.857,2.236,1.371,3.314c0.161,0.443,0.353,0.874,0.575,1.29
		c0.217,0.423,0.461,0.832,0.73,1.224c0.586,1.034,1.223,2.038,1.91,3.008c4.58,6.49,11.161,11.299,18.736,13.692
		c0.628,0.2,1.253,0.384,1.885,0.543c4.61,1.199,9.411,1.476,14.128,0.816C202.191,214.657,194.559,218.611,186.282,219.754z"/>

		<linearGradient id="XMLID_7_" gradientUnits="userSpaceOnUse" x1="181.7135" y1="198.7883" x2="149.6777" y2="176.4531" gradientTransform="matrix(1 0 0 -1 0 373.6097)">
			<stop offset="0.21" style="stop-color:#647D2A"/>
			<stop offset="1" style="stop-color:#AEC90B"/>
		</linearGradient>
		<path id="XMLID_491_" fill="url(#XMLID_7_)" d="M156.405,210.287c-6.094-5.712-10.054-13.334-11.223-21.605
		c-0.177-1.263-0.287-2.533-0.331-3.808c5.325-7.024,13.005-11.893,21.629-13.712c2.602-0.551,5.258-0.809,7.917-0.771
		c1.979,0.02,3.953,0.205,5.901,0.555c-1.143,0.406-2.264,0.87-3.359,1.392c-0.85,0.317-1.659,0.736-2.408,1.249
		c-1.057,0.596-2.083,1.245-3.073,1.947c-1.553,1.095-3.018,2.31-4.379,3.636l0,0c-4.294,4.193-7.488,9.379-9.301,15.1
		c-0.2,0.628-0.384,1.253-0.543,1.877l0,0C156.032,200.759,155.749,205.564,156.405,210.287z"/>

		<linearGradient id="XMLID_8_" gradientUnits="userSpaceOnUse" x1="172.9265" y1="182.6931" x2="214.6668" y2="177.2042" gradientTransform="matrix(1 0 0 -1 0 373.6097)">
			<stop offset="0.21" style="stop-color:#647D2A"/>
			<stop offset="1" style="stop-color:#AEC90B"/>
		</linearGradient>
		<path id="XMLID_490_" fill="url(#XMLID_8_)" d="M193.767,207.736c-0.633-0.163-1.257-0.343-1.885-0.543
		c-3.143-0.992-6.136-2.408-8.897-4.208c-3.848-2.508-7.187-5.722-9.839-9.472c2.902,1.348,5.969,2.308,9.121,2.857
		c4.578,0.821,9.271,0.75,13.822-0.208c8.625-1.816,16.305-6.683,21.629-13.708c0.258,8.33-2.334,16.498-7.346,23.156
		c-0.762,1.018-1.58,1.993-2.449,2.922C203.198,209.202,198.387,208.932,193.767,207.736z"/>

		<linearGradient id="XMLID_9_" gradientUnits="userSpaceOnUse" x1="180.2632" y1="178.4375" x2="213.9477" y2="204.617" gradientTransform="matrix(1 0 0 -1 0 373.6097)">
			<stop offset="0.21" style="stop-color:#647D2A"/>
			<stop offset="1" style="stop-color:#AEC90B"/>
		</linearGradient>
		<path id="XMLID_489_" fill="url(#XMLID_9_)" d="M182.267,196.37c-1.575-0.276-3.129-0.658-4.652-1.143
		c3.068,0.97,6.395,0.684,9.252-0.796l0,0c0.402-0.204,0.79-0.433,1.163-0.686c1.058-0.597,2.085-1.248,3.077-1.951
		c6.493-4.582,11.304-11.166,13.696-18.744c0.2-0.628,0.384-1.253,0.543-1.877l0,0c1.199-4.61,1.476-9.411,0.816-14.128
		c6.104,5.704,10.061,13.333,11.206,21.609c0.185,1.264,0.296,2.538,0.335,3.816C209.458,193.418,195.755,198.793,182.267,196.37z" />

		<linearGradient id="XMLID_10_" gradientUnits="userSpaceOnUse" x1="187.3763" y1="197.4055" x2="147.8356" y2="202.7108" gradientTransform="matrix(1 0 0 -1 0 373.6097)">
			<stop offset="0.21" style="stop-color:#647D2A"/>
			<stop offset="1" style="stop-color:#AEC90B"/>
		</linearGradient>
		<path id="XMLID_488_" fill="url(#XMLID_10_)" d="M144.856,184.874c-0.258-8.33,2.334-16.498,7.346-23.156
		c0.762-1.021,1.579-1.999,2.449-2.93c4.723-0.663,9.53-0.386,14.145,0.816c0.624,0.159,1.253,0.343,1.877,0.543
		c3.143,0.992,6.136,2.408,8.897,4.208c3.854,2.502,7.194,5.719,9.839,9.476c-7.154-3.355-15.205-4.294-22.939-2.673
		c-8.625,1.82-16.304,6.688-21.629,13.712L144.856,184.874z"/>

		<linearGradient id="XMLID_11_" gradientUnits="userSpaceOnUse" x1="189.034" y1="182.0499" x2="193.9761" y2="223.423" gradientTransform="matrix(1 0 0 -1 0 373.6097)">
			<stop offset="0.21" style="stop-color:#647D2A"/>
			<stop offset="1" style="stop-color:#AEC90B"/>
		</linearGradient>
		<path id="XMLID_487_" fill="url(#XMLID_11_)" d="M195.493,188.172c-1.363,1.326-2.828,2.542-4.383,3.636
		c0.683-1.455,1.266-2.955,1.747-4.489c0.484-1.531,0.869-3.092,1.151-4.673c0.347-1.936,0.531-3.898,0.551-5.864l0,0
		c0.086-6.676-1.67-13.247-5.077-18.989l0,0c-2.408-4.092-5.597-7.671-9.386-10.533c8.329-0.258,16.498,2.334,23.156,7.346
		c1.021,0.769,1.998,1.594,2.926,2.473c0.66,4.717,0.383,9.519-0.816,14.128l0,0c-0.159,0.624-0.343,1.253-0.543,1.877
		c-1.81,5.724-5.008,10.911-9.309,15.1L195.493,188.172z"/>

		<linearGradient id="XMLID_12_" gradientUnits="userSpaceOnUse" x1="193.4435" y1="190.7589" x2="166.3539" y2="222.4274" gradientTransform="matrix(1 0 0 -1 0 373.6097)">
			<stop offset="0.21" style="stop-color:#647D2A"/>
			<stop offset="1" style="stop-color:#AEC90B"/>
		</linearGradient>
		<path id="XMLID_486_" fill="url(#XMLID_12_)" d="M194.004,182.662c-0.408-1.159-0.89-2.302-1.416-3.412
		c-0.315-0.804-0.716-1.572-1.196-2.289c-0.604-1.077-1.266-2.121-1.983-3.126c-2.646-3.757-5.985-6.974-9.839-9.476
		c-2.761-1.8-5.754-3.215-8.897-4.207c-0.628-0.2-1.253-0.384-1.877-0.543c-4.615-1.202-9.422-1.479-14.145-0.816
		c5.718-6.097,13.351-10.053,21.629-11.21c1.262-0.183,2.533-0.296,3.808-0.339c3.789,2.862,6.978,6.441,9.386,10.533l0,0
		c3.412,5.746,5.172,12.323,5.085,19.005l0,0C194.538,178.754,194.353,180.721,194.004,182.662z"/>
		<circle id="XMLID_481_" fill="#F5F5F5" cx="155.956" cy="60.608" r="22.841"/>
		<path id="XMLID_480_" fill="#3F3E3E" d="M157.76,59.882c-0.962,0-1.743-0.78-1.743-1.743l0,0c-0.002-0.284,0.067-0.565,0.2-0.816
		c-0.09,0-0.175-0.029-0.265-0.029c-1.823-0.004-3.305,1.471-3.308,3.295c-0.004,1.823,1.471,3.305,3.295,3.308
		c1.823,0.004,3.305-1.471,3.308-3.295c0.001-0.435-0.084-0.866-0.25-1.268C158.676,59.677,158.229,59.874,157.76,59.882z"/>
		<line id="XMLID_477_" fill="none" x1="246.554" y1="203.561" x2="246.546" y2="203.569"/>
	</g>
	<g>
		<g>
			<path id="XMLID_1125_" fill="#1C1B1B" d="M63.032,320.91c0.047-26.726,0.094-53.452,0.141-80.177c0,0,6.316-0.216,7.004,0
			c0.688,0.216,3.213,0.886,3.808,3.039c0.595,2.153,0.595,2.153,0.595,2.153s2.093-2.922,3.456-3.648
			c1.363-0.726,1.656-1.568,7.354-1.641s8.256,0,8.256,0s3.377,0.474,5.874,2.616c2.498,2.143,4.17,5.642,4.17,8.863
			s-0.07,63.866-0.07,63.866s-0.669,3.019-2.383,3.855c-1.714,0.837-2.47,1.001-2.47,1.001l-6.788,0.071l-0.037-65.047
			c0,0-0.976-4.941-4.927-4.986c-3.951-0.045-12.444-0.045-12.444-0.045l-0.083,65.247c0,0-1.309,4.348-4.07,4.589
			C67.657,320.91,63.032,320.91,63.032,320.91z"/>
			<path id="XMLID_1124_" fill="#1C1B1B" d="M116.703,240.564l7.164,0.103c0,0,4.168,0.857,4.433,3.97
			c0.265,3.113,0.265,66.185,0.265,66.185h9.708c0,0,3.847-1.524,3.982-4.26c0.135-2.736,0.135-65.998,0.135-65.998l7.187,0.04
			c0,0,4.13,1.195,4.314,4.345c0.184,3.15,0.184,65.873,0.184,65.873h10.149c0,0,4.02,0.068,4.02-5.601s0-64.658,0-64.658
			l6.971,0.13c0,0,3.979,1.005,4.282,3.856s0,66.272,0,66.272s-0.969,5.443-3.632,7.199s-5.096,2.889-9.98,2.889
			c-4.884,0-10.847,0.675-12.865-0.934c-2.019-1.608-2.962-2.304-3.714-3.935c-0.752-1.632-1.052-2.778-1.052-2.778
			s-1.932,4.519-3.425,5.609s-2.578,2.039-7.723,2.038c-5.145,0-11.859,0.311-14.234-1.351c-2.375-1.662-5.771-3.906-5.97-8.119
			S116.703,240.564,116.703,240.564z"/>
			<path id="XMLID_1123_" fill="#1C1B1B" d="M217.369,250.815l0.166,7.309c0,0,1.309,4.403,4.83,4.403s6.548,0,6.548,0l-0.163-12.259
			c0,0-1.783-5.448-3.896-6.896c-2.113-1.448-5.012-2.812-7.485-2.812s-15.554,0.004-15.554,0.004s-4.352,1.089-6.007,2.889
			s-3.953,5.418-3.964,8.39s0.158,15.45,0.158,15.45s-0.06,2.274,4.07,6.515s21.293,21.871,21.293,21.871l-0.201,10.852
			c0,0-1.131,3.611-3.661,3.945s-10.285,0.334-10.285,0.334l-0.094-7.141c0,0-1.382-4.338-4.092-4.534
			c-2.71-0.195-7.525-0.195-7.525-0.195l0.033,11.165c0,0,0.738,5.395,3.344,7.367c2.606,1.973,5.601,3.438,8.316,3.438
			c2.715,0,15.533-0.091,15.533-0.091s5.075-0.879,6.96-3.497c1.885-2.618,3.216-4.091,3.216-7.965s-0.06-14.881-0.06-14.881
			s-0.298-2.427-1.328-3.772s-23.976-24.767-23.976-24.767l0.111-10.599c0,0,1.279-3.99,3.949-4.257
			S217.369,250.815,217.369,250.815z"/>
			<path id="XMLID_1112_" fill="#1C1B1B" d="M321.621,250.815l0.166,7.309c0,0,1.309,4.403,4.83,4.403c3.521,0,6.548,0,6.548,0
			l-0.163-12.259c0,0-1.783-5.448-3.896-6.896c-2.113-1.448-5.012-2.812-7.485-2.812s-15.554,0.004-15.554,0.004
			s-4.352,1.089-6.007,2.889c-1.655,1.8-3.953,5.418-3.964,8.39c-0.011,2.972,0.158,15.45,0.158,15.45s-0.06,2.274,4.07,6.515
			s21.293,21.871,21.293,21.871l-0.201,10.852c0,0-1.131,3.611-3.661,3.945s-10.285,0.334-10.285,0.334l-0.094-7.141
			c0,0-1.382-4.338-4.092-4.534s-7.525-0.195-7.525-0.195l0.033,11.165c0,0,0.738,5.395,3.344,7.367
			c2.606,1.973,5.601,3.438,8.316,3.438c2.715,0,15.533-0.091,15.533-0.091s5.075-0.879,6.96-3.497
			c1.885-2.618,3.216-4.091,3.216-7.965s-0.06-14.881-0.06-14.881s-0.298-2.427-1.328-3.772s-23.976-24.767-23.976-24.767
			l0.111-10.599c0,0,1.279-3.99,3.949-4.257C314.526,250.815,321.621,250.815,321.621,250.815z"/>
			<path fill="#1C1B1B" d="M283.421,240.605c-1.05,0.258-2.042,0.608-2.749,1.344c-0.759,0.791-1.503,1.604-2.267,2.393l-15.98,46.59
			l-16.53-48.195c-0.278-0.308-0.532-0.608-0.829-0.918c-0.61-0.638-1.694-0.953-2.848-1.214h-8.737l23.596,65.789l-2.731,7.38
			c-0.66,1.785-1.609,3.084-2.849,3.897c-0.253,0.166-0.592,0.241-0.877,0.373v-5.871h-10.475v15.385h0.368v0.399
			c1.046,0.312,2.082,0.552,3.107,0.726c1.028,0.174,2.064,0.261,3.11,0.261c4.767,0,8.408-1.043,10.927-3.135
			c2.519-2.092,5.017-6.531,7.498-13.313l26.212-71.891H283.421z"/>
		</g>
		<g>
			<path fill="#1C1B1B" d="M27.855,367.704h3.35v10.289h8.08v-10.888c0-1.349-0.122-2.186-0.367-2.505
			c-0.206-0.256-0.627-0.506-1.261-0.743l-7.343-2.742c-1.107-0.419-1.812-1.168-2.121-2.243c-0.225-0.75-0.338-1.905-0.338-3.454
			v-10.32c0-3.042,1.577-4.566,4.733-4.566h5.316c3.153,0,4.73,1.524,4.73,4.566v8.977h-3.35v-10.382h-8.08v11.9
			c0,1.256,0.174,2.061,0.521,2.418c0.267,0.281,0.862,0.593,1.783,0.956l6.268,2.443c1.332,0.518,2.172,1.243,2.52,2.18
			c0.225,0.618,0.338,1.543,0.338,2.774v10.226c0,3.042-1.577,4.566-4.73,4.566h-5.316c-3.157,0-4.733-1.524-4.733-4.566V367.704z" />
			<path fill="#1C1B1B" d="M57.169,381.153h-4.148c-3.134,0-4.701-1.53-4.701-4.591v-17.21c0-3.142,1.567-4.716,4.701-4.716h4.148
			c3.153,0,4.733,1.574,4.733,4.716v17.21C61.902,379.623,60.323,381.153,57.169,381.153z M51.454,357.265v21.264h7.314v-21.264
			H51.454z"/>
			<path fill="#1C1B1B" d="M70.072,340.53v40.623h-3.134V340.53H70.072z"/>
			<path fill="#1C1B1B" d="M88.694,381.153h-8.881c-3.134,0-4.701-1.53-4.701-4.591v-21.926h3.134v23.894h7.314v-23.894h3.134
			V381.153z"/>
			<path fill="#1C1B1B" d="M97.111,385.807c0.042-1.849,0.74-2.992,2.092-3.43v-1.224h-0.769c-3.134,0-4.701-1.53-4.701-4.591v-17.21
			c0-3.142,1.567-4.716,4.701-4.716h4.148c3.153,0,4.733,1.512,4.733,4.535v5.247h-3.134v-7.153h-7.314v21.264h7.314v-6.978h3.134
			v5.185c0,2.942-1.58,4.417-4.733,4.417h-0.553v1.281c1.393,0.4,2.092,1.524,2.092,3.373v1.699c0,2.324-0.975,3.492-2.922,3.492
			H99.94c-1.802,0-2.745-1.168-2.828-3.492h2.092v1.281h2.825v-4.323h-2.825v1.343H97.111z"/>
			<path fill="#1C1B1B" d="M121.203,381.153h-4.148c-3.134,0-4.701-1.53-4.701-4.591v-17.21c0-3.142,1.567-4.716,4.701-4.716h4.148
			c3.153,0,4.733,1.574,4.733,4.716v17.21C125.936,379.623,124.356,381.153,121.203,381.153z M116.009,351.031l-0.891-2.118
			c0.615-0.7,1.364-1.043,2.246-1.043c0.447,0,1.126,0.137,2.027,0.412c0.634,0.225,1.065,0.331,1.29,0.331
			c0.061,0,0.142-0.013,0.245-0.031c0.553-0.056,1.014-0.3,1.384-0.712l0.859,2.143c-0.798,0.7-1.577,1.049-2.333,1.049
			c-0.431,0-1.088-0.162-1.969-0.481c-0.695-0.237-1.207-0.35-1.535-0.325C116.778,350.313,116.337,350.575,116.009,351.031z
			 M115.488,357.265v21.264h7.314v-21.264H115.488z"/>
			<path fill="#1C1B1B" d="M144.557,371.696v5.072c0,2.924-1.567,4.385-4.701,4.385h-4.058c-3.215,0-4.823-1.524-4.823-4.566v-17.235
			c0-3.142,1.609-4.716,4.823-4.716h4.058c3.134,0,4.701,1.512,4.701,4.535v9.458h-10.448v9.901h7.314v-6.834H144.557z
			 M134.109,366.005h7.314v-8.739h-7.314V366.005z"/>
			<path fill="#1C1B1B" d="M160.041,378.53v-6.534c0-0.875-0.084-1.462-0.248-1.755c-0.164-0.344-0.644-0.612-1.445-0.806
			l-5.866-1.462c-1.927-0.481-2.89-1.849-2.89-4.117v-4.504c0-3.142,1.567-4.716,4.701-4.716h4.18c3.134,0,4.701,1.505,4.701,4.504
			v4.535h-3.134v-6.409h-7.314v5.872c0,0.975,0.051,1.574,0.154,1.793c0.122,0.275,0.705,0.556,1.75,0.831l6.207,1.643
			c0.901,0.237,1.506,0.575,1.812,1.012c0.351,0.462,0.525,1.374,0.525,2.749v5.603c0,2.924-1.567,4.385-4.701,4.385h-4.18
			c-3.134,0-4.701-1.524-4.701-4.566v-4.891h3.134v6.834H160.041z"/>
			<path fill="#1C1B1B" d="M188.155,340.53v3.161H182.9v37.462h-3.346v-37.462h-5.039v-3.161H188.155z"/>
			<path fill="#1C1B1B" d="M205.518,371.696v5.072c0,2.924-1.567,4.385-4.701,4.385h-4.058c-3.215,0-4.823-1.524-4.823-4.566v-17.235
			c0-3.142,1.609-4.716,4.823-4.716h4.058c3.134,0,4.701,1.512,4.701,4.535v9.458H195.07v9.901h7.314v-6.834H205.518z
			 M195.07,366.005h7.314v-8.739h-7.314V366.005z"/>
			<path fill="#1C1B1B" d="M224.139,364.418h-3.134v-7.153h-7.314v21.264h7.314v-6.978h3.134v5.185c0,2.942-1.567,4.417-4.701,4.417
			h-4.18c-3.134,0-4.701-1.53-4.701-4.591v-17.21c0-3.142,1.567-4.716,4.701-4.716h4.18c3.134,0,4.701,1.512,4.701,4.535V364.418z" />
			<path fill="#1C1B1B" d="M229.175,354.636h8.881c3.134,0,4.701,1.555,4.701,4.654v21.864h-3.134v-23.888h-7.314v23.888h-3.134
			V354.636z"/>
			<path fill="#1C1B1B" d="M256.645,381.153h-4.148c-3.134,0-4.701-1.53-4.701-4.591v-17.21c0-3.142,1.567-4.716,4.701-4.716h4.148
			c3.153,0,4.733,1.574,4.733,4.716v17.21C261.378,379.623,259.799,381.153,256.645,381.153z M250.93,357.265v21.264h7.314v-21.264
			H250.93z"/>
			<path fill="#1C1B1B" d="M269.552,340.53v40.623h-3.134V340.53H269.552z"/>
			<path fill="#1C1B1B" d="M283.439,381.153h-4.148c-3.134,0-4.701-1.53-4.701-4.591v-17.21c0-3.142,1.567-4.716,4.701-4.716h4.148
			c3.153,0,4.733,1.574,4.733,4.716v17.21C288.173,379.623,286.593,381.153,283.439,381.153z M277.725,357.265v21.264h7.314v-21.264
			H277.725z M285.467,345.659l-2.581,6.472h-2.304l1.998-6.472H285.467z"/>
			<path fill="#1C1B1B" d="M306.791,354.636v35.257c0,3.142-1.609,4.71-4.827,4.71h-4.054c-3.134,0-4.701-1.487-4.701-4.473v-5.603
			h3.134v7.453h7.314v-10.826h-5.747c-3.134,0-4.701-1.53-4.701-4.591v-17.273c0-3.098,1.567-4.654,4.701-4.654H306.791z
			 M303.657,357.265h-7.314v21.264h7.314V357.265z"/>
			<path fill="#1C1B1B" d="M313.397,345.303c0.553,0,1.004,0.181,1.351,0.537c0.37,0.356,0.553,0.793,0.553,1.312
			s-0.183,0.943-0.553,1.281c-0.348,0.362-0.798,0.537-1.351,0.537c-0.534,0-0.972-0.175-1.323-0.537
			c-0.367-0.337-0.55-0.762-0.55-1.281s0.183-0.956,0.55-1.312C312.425,345.484,312.863,345.303,313.397,345.303z M314.964,354.636
			v26.518h-3.134v-26.518H314.964z"/>
			<path fill="#1C1B1B" d="M333.585,364.418h-3.134v-7.153h-7.314v21.264h7.314v-6.978h3.134v5.185c0,2.942-1.567,4.417-4.701,4.417
			h-4.18c-3.134,0-4.701-1.53-4.701-4.591v-17.21c0-3.142,1.567-4.716,4.701-4.716h4.18c3.134,0,4.701,1.512,4.701,4.535V364.418z" />
			<path fill="#1C1B1B" d="M338.624,361.351v-2.03c0-3.123,1.567-4.685,4.701-4.685h4.054c3.218,0,4.827,1.562,4.827,4.685v21.833
			h-8.881c-3.134,0-4.701-1.53-4.701-4.591v-5.966c0-3.061,1.567-4.591,4.701-4.591h5.747v-8.739h-7.314v4.085H338.624z
			 M349.072,378.53v-9.901h-7.314v9.901H349.072z"/>
			<path fill="#1C1B1B" d="M367.694,378.53v-6.534c0-0.875-0.084-1.462-0.248-1.755c-0.164-0.344-0.644-0.612-1.445-0.806
			l-5.866-1.462c-1.927-0.481-2.89-1.849-2.89-4.117v-4.504c0-3.142,1.567-4.716,4.701-4.716h4.18c3.134,0,4.701,1.505,4.701,4.504
			v4.535h-3.134v-6.409h-7.314v5.872c0,0.975,0.051,1.574,0.154,1.793c0.122,0.275,0.705,0.556,1.75,0.831l6.207,1.643
			c0.901,0.237,1.506,0.575,1.812,1.012c0.351,0.462,0.525,1.374,0.525,2.749v5.603c0,2.924-1.567,4.385-4.701,4.385h-4.18
			c-3.134,0-4.701-1.524-4.701-4.566v-4.891h3.134v6.834H367.694z"/>
		</g>
	</g>
	<rect x="0.024" y="0.305" opacity="0" fill="none" stroke="#1C1B1B" stroke-miterlimit="10" width="400" height="400"/>
</svg>
